# xmcd
#
# Track frame offsets:
#	150
#	9197
#	20025
#	37125
#	40525
#	54300
#	61940
#	71325
#	88637
#	106837
#	122625
#	139740
#	156675
#	173500
#	186325
#	202125
#	210650
#	221575
#	236800
#	243950
#
# Disc length: 3564 seconds
# Revision: 0
# Processed by: cddbd v1.5.2PL0 Copyright (c) Steve Scherf et al.
# Submitted via: dBpowerAMP V12.0
#
DISCID=1a0dea14
DTITLE=Various / New Zealand - Our Land - Our Music
DYEAR=1995
DGENRE=Pop/Rock
TTITLE0=Nz National Youth Choir / God Defend New Zealand
TTITLE1=Howard Morrison / E au E, Ka Mata Ahau
TTITLE2=John Rowles / Island in the Sun
TTITLE3=Sam Hunt / River Song (Poem)
TTITLE4=Union / Haka 95 - Pokarekare Ana
TTITLE5=Wiki Baker / Hine E Hine
TTITLE6=John Grenell / Welcome to Our World
TTITLE7=New Zealand Symphony Orchestra / The Earnslaw Steam Theme
TTITLE8=Malvina Major / Wishing You Were Somehow Here Again
TTITLE9=Dean Waretini / The Bridge
TTITLE10=Prince Tui Teka / E Ipo
TTITLE11=Split Enz / Six Months in a Leaky Boat
TTITLE12=Topp Twins, The / Calf Club Day
TTITLE13=Cara Pewhairangi & Patea Maori Club / Haere Mai
TTITLE14=Anna Leah / Wahine
TTITLE15=St Josephs Maori Girls Choir / Hoki Mai
TTITLE16=Howard Morrison Quartet, The / Battle of the Waikato
TTITLE17=Peter Cape / Taumaranui (On the Main Trunk Line)
TTITLE18=Michael Nyman / The Heart Asks Pleasure First (Theme from 'the Piano')
TTITLE19=Howard Morrison / Whakaaria Mai (How Great Thou Art)
EXTD=
EXTT0=
EXTT1=
EXTT2=
EXTT3=
EXTT4=
EXTT5=
EXTT6=
EXTT7=
EXTT8=
EXTT9=
EXTT10=
EXTT11=
EXTT12=
EXTT13=
EXTT14=
EXTT15=
EXTT16=
EXTT17=
EXTT18=
EXTT19=
PLAYORDER=
